<svg width="23" height="24" fill="none" xmlns="http://www.w3.org/2000/svg"><path d="M6.657 0C2.986 0 0 3.125 0 6.965v10.072C0 20.877 2.986 24 6.657 24h9.686C20.014 24 23 20.877 23 17.037V6.965C23 3.125 20.014 0 16.343 0H6.657zm0 2.063h9.686c2.613 0 4.686 2.169 4.686 4.902v10.072c0 2.733-2.073 4.9-4.686 4.9H6.657c-2.613 0-4.685-2.167-4.685-4.9V6.965c0-2.733 2.072-4.902 4.685-4.902zm11.016 2.063c-.762 0-1.38.646-1.38 1.443s.618 1.443 1.38 1.443c.762 0 1.379-.646 1.379-1.443s-.617-1.443-1.38-1.443zM11.5 5.821C8.249 5.82 5.593 8.599 5.593 12c0 3.4 2.656 6.18 5.907 6.18s5.909-2.78 5.909-6.18-2.658-6.18-5.909-6.18zm0 2.063c2.185 0 3.937 1.83 3.937 4.116 0 2.286-1.752 4.116-3.937 4.116-2.185 0-3.935-1.83-3.935-4.116 0-2.286 1.75-4.116 3.935-4.116z" fill="#575757"/></svg>
