<svg width="22" height="18" fill="none" xmlns="http://www.w3.org/2000/svg"><path d="M22 2.13a8.976 8.976 0 01-2.592.716A4.554 4.554 0 0021.392.332a8.987 8.987 0 01-2.866 1.103A4.492 4.492 0 0015.232 0c-2.493 0-4.513 2.034-4.513 4.544 0 .356.04.703.117 1.036-3.751-.19-7.077-2-9.303-4.748a4.544 4.544 0 00-.611 2.284A4.55 4.55 0 002.93 6.899 4.466 4.466 0 01.885 6.33v.057a4.54 4.54 0 003.62 4.456 4.488 4.488 0 01-2.038.078 4.523 4.523 0 004.216 3.156 9.02 9.02 0 01-5.606 1.945C.713 16.022.353 16 0 15.959A12.716 12.716 0 006.92 18c8.3 0 12.84-6.924 12.84-12.93 0-.196-.005-.392-.013-.587a9.224 9.224 0 002.252-2.353" fill="#575757"/></svg>
